<mxfile host="app.diagrams.net" modified="2021-03-05T03:36:26.120Z" agent="5.0 (Windows NT 10.0; Win64; x64) AppleWebKit/537.36 (KHTML, like Gecko) Chrome/88.0.4324.182 Safari/537.36" etag="k9uRYhaH1zhWIIqAutI5" version="14.4.3" type="github">
  <diagram id="prtHgNgQTEPvFCAcTncT" name="Page-1">
    <mxGraphModel dx="1028" dy="511" grid="1" gridSize="10" guides="1" tooltips="1" connect="1" arrows="1" fold="1" page="1" pageScale="1" pageWidth="827" pageHeight="1169" math="0" shadow="0">
      <root>
        <mxCell id="0" />
        <mxCell id="1" parent="0" />
        <mxCell id="Bq_kC5_2EOcl6bQPgjw--1" value="" style="rounded=0;whiteSpace=wrap;html=1;" vertex="1" parent="1">
          <mxGeometry x="360" y="50" width="220" height="60" as="geometry" />
        </mxCell>
        <mxCell id="Bq_kC5_2EOcl6bQPgjw--8" value="" style="shape=mxgraph.cisco.computers_and_peripherals.ibm_mainframe;html=1;pointerEvents=1;dashed=0;fillColor=#036897;strokeColor=#ffffff;strokeWidth=2;verticalLabelPosition=bottom;verticalAlign=top;align=center;outlineConnect=0;" vertex="1" parent="1">
          <mxGeometry x="370" y="55" width="50" height="50" as="geometry" />
        </mxCell>
        <mxCell id="Bq_kC5_2EOcl6bQPgjw--9" value="&lt;font style=&quot;vertical-align: inherit; font-size: 15px;&quot;&gt;&lt;font style=&quot;vertical-align: inherit; font-size: 15px;&quot;&gt;导演台&lt;/font&gt;&lt;/font&gt;" style="text;html=1;strokeColor=none;fillColor=none;align=center;verticalAlign=middle;whiteSpace=wrap;rounded=0;fontSize=15;" vertex="1" parent="1">
          <mxGeometry x="400" y="70" width="100" height="20" as="geometry" />
        </mxCell>
        <mxCell id="Bq_kC5_2EOcl6bQPgjw--10" value="" style="shape=mxgraph.cisco.misc.pad_2;html=1;pointerEvents=1;dashed=0;fillColor=#036897;strokeColor=#ffffff;strokeWidth=2;verticalLabelPosition=bottom;verticalAlign=top;align=center;outlineConnect=0;fontSize=15;" vertex="1" parent="1">
          <mxGeometry x="484" y="56" width="85" height="48" as="geometry" />
        </mxCell>
        <mxCell id="Bq_kC5_2EOcl6bQPgjw--13" value="" style="rounded=0;whiteSpace=wrap;html=1;" vertex="1" parent="1">
          <mxGeometry x="170" y="50" width="120" height="60" as="geometry" />
        </mxCell>
        <mxCell id="Bq_kC5_2EOcl6bQPgjw--14" value="" style="shape=mxgraph.cisco.storage.relational_database;html=1;pointerEvents=1;dashed=0;fillColor=#036897;strokeColor=#ffffff;strokeWidth=2;verticalLabelPosition=bottom;verticalAlign=top;align=center;outlineConnect=0;fontSize=15;" vertex="1" parent="1">
          <mxGeometry x="180" y="60" width="50" height="40" as="geometry" />
        </mxCell>
        <mxCell id="Bq_kC5_2EOcl6bQPgjw--16" value="&lt;font style=&quot;vertical-align: inherit ; font-size: 15px&quot;&gt;&lt;font style=&quot;vertical-align: inherit ; font-size: 15px&quot;&gt;&lt;font style=&quot;vertical-align: inherit&quot;&gt;&lt;font style=&quot;vertical-align: inherit&quot;&gt;数据库&lt;/font&gt;&lt;/font&gt;&lt;/font&gt;&lt;/font&gt;" style="text;html=1;strokeColor=none;fillColor=none;align=center;verticalAlign=middle;whiteSpace=wrap;rounded=0;fontSize=15;" vertex="1" parent="1">
          <mxGeometry x="210" y="70" width="100" height="20" as="geometry" />
        </mxCell>
        <mxCell id="Bq_kC5_2EOcl6bQPgjw--17" value="" style="shape=flexArrow;endArrow=classic;startArrow=classic;html=1;fontSize=15;entryX=0;entryY=0.5;entryDx=0;entryDy=0;exitX=1;exitY=0.5;exitDx=0;exitDy=0;" edge="1" parent="1" source="Bq_kC5_2EOcl6bQPgjw--13" target="Bq_kC5_2EOcl6bQPgjw--1">
          <mxGeometry width="50" height="50" relative="1" as="geometry">
            <mxPoint x="290" y="90" as="sourcePoint" />
            <mxPoint x="440" y="120" as="targetPoint" />
          </mxGeometry>
        </mxCell>
        <mxCell id="Bq_kC5_2EOcl6bQPgjw--18" value="&lt;font style=&quot;vertical-align: inherit ; font-size: 15px&quot;&gt;&lt;font style=&quot;vertical-align: inherit ; font-size: 15px&quot;&gt;&lt;font style=&quot;vertical-align: inherit&quot;&gt;&lt;font style=&quot;vertical-align: inherit&quot;&gt;&lt;font style=&quot;vertical-align: inherit&quot;&gt;&lt;font style=&quot;vertical-align: inherit&quot;&gt;数据交互&lt;/font&gt;&lt;/font&gt;&lt;/font&gt;&lt;/font&gt;&lt;/font&gt;&lt;/font&gt;" style="text;html=1;strokeColor=none;fillColor=none;align=center;verticalAlign=middle;whiteSpace=wrap;rounded=0;fontSize=15;" vertex="1" parent="1">
          <mxGeometry x="280" y="50" width="100" height="20" as="geometry" />
        </mxCell>
        <mxCell id="Bq_kC5_2EOcl6bQPgjw--21" value="" style="shape=flexArrow;endArrow=classic;html=1;fontSize=15;entryX=0.468;entryY=-0.019;entryDx=0;entryDy=0;exitX=0.178;exitY=1.027;exitDx=0;exitDy=0;exitPerimeter=0;entryPerimeter=0;" edge="1" parent="1" source="Bq_kC5_2EOcl6bQPgjw--1" target="Bq_kC5_2EOcl6bQPgjw--41">
          <mxGeometry width="50" height="50" relative="1" as="geometry">
            <mxPoint x="170" y="150" as="sourcePoint" />
            <mxPoint x="400" y="200" as="targetPoint" />
          </mxGeometry>
        </mxCell>
        <mxCell id="Bq_kC5_2EOcl6bQPgjw--23" value="" style="shape=flexArrow;endArrow=classic;html=1;fontSize=15;entryX=0.574;entryY=-0.003;entryDx=0;entryDy=0;exitX=0.178;exitY=1.027;exitDx=0;exitDy=0;exitPerimeter=0;entryPerimeter=0;" edge="1" parent="1" target="Bq_kC5_2EOcl6bQPgjw--41">
          <mxGeometry width="50" height="50" relative="1" as="geometry">
            <mxPoint x="449.5000000000001" y="110.62" as="sourcePoint" />
            <mxPoint x="450.34000000000003" y="199" as="targetPoint" />
          </mxGeometry>
        </mxCell>
        <mxCell id="Bq_kC5_2EOcl6bQPgjw--25" value="" style="shape=flexArrow;endArrow=classic;html=1;fontSize=15;entryX=0.75;entryY=1;entryDx=0;entryDy=0;" edge="1" parent="1" target="Bq_kC5_2EOcl6bQPgjw--1">
          <mxGeometry width="50" height="50" relative="1" as="geometry">
            <mxPoint x="525" y="337" as="sourcePoint" />
            <mxPoint x="459.84000000000015" y="210" as="targetPoint" />
          </mxGeometry>
        </mxCell>
        <mxCell id="Bq_kC5_2EOcl6bQPgjw--41" value="" style="rounded=0;whiteSpace=wrap;html=1;" vertex="1" parent="1">
          <mxGeometry x="170" y="340" width="490" height="200" as="geometry" />
        </mxCell>
        <mxCell id="Bq_kC5_2EOcl6bQPgjw--42" value="" style="rounded=0;whiteSpace=wrap;html=1;" vertex="1" parent="1">
          <mxGeometry x="215" y="360" width="120" height="60" as="geometry" />
        </mxCell>
        <mxCell id="Bq_kC5_2EOcl6bQPgjw--43" style="edgeStyle=orthogonalEdgeStyle;rounded=0;orthogonalLoop=1;jettySize=auto;html=1;fontSize=15;" edge="1" parent="1" source="Bq_kC5_2EOcl6bQPgjw--44">
          <mxGeometry relative="1" as="geometry">
            <mxPoint x="335" y="390" as="targetPoint" />
          </mxGeometry>
        </mxCell>
        <mxCell id="Bq_kC5_2EOcl6bQPgjw--44" value="" style="rounded=0;whiteSpace=wrap;html=1;" vertex="1" parent="1">
          <mxGeometry x="465" y="345" width="190" height="90" as="geometry" />
        </mxCell>
        <mxCell id="Bq_kC5_2EOcl6bQPgjw--45" value="&lt;font style=&quot;vertical-align: inherit ; font-size: 15px&quot;&gt;&lt;font style=&quot;vertical-align: inherit ; font-size: 15px&quot;&gt;&lt;font style=&quot;vertical-align: inherit&quot;&gt;&lt;font style=&quot;vertical-align: inherit&quot;&gt;&lt;font style=&quot;vertical-align: inherit&quot;&gt;&lt;font style=&quot;vertical-align: inherit&quot;&gt;客户端&lt;/font&gt;&lt;/font&gt;&lt;/font&gt;&lt;/font&gt;&lt;/font&gt;&lt;/font&gt;" style="text;html=1;strokeColor=none;fillColor=none;align=center;verticalAlign=middle;whiteSpace=wrap;rounded=0;fontSize=15;" vertex="1" parent="1">
          <mxGeometry x="255" y="380" width="100" height="20" as="geometry" />
        </mxCell>
        <mxCell id="Bq_kC5_2EOcl6bQPgjw--48" value="&lt;font style=&quot;vertical-align: inherit ; font-size: 15px&quot;&gt;&lt;font style=&quot;vertical-align: inherit ; font-size: 15px&quot;&gt;&lt;font style=&quot;vertical-align: inherit&quot;&gt;&lt;font style=&quot;vertical-align: inherit&quot;&gt;&lt;font style=&quot;vertical-align: inherit&quot;&gt;&lt;font style=&quot;vertical-align: inherit&quot;&gt;&lt;font style=&quot;vertical-align: inherit&quot;&gt;&lt;font style=&quot;vertical-align: inherit&quot;&gt;人机交互平台&lt;/font&gt;&lt;/font&gt;&lt;/font&gt;&lt;/font&gt;&lt;/font&gt;&lt;/font&gt;&lt;/font&gt;&lt;/font&gt;" style="text;html=1;strokeColor=none;fillColor=none;align=center;verticalAlign=middle;whiteSpace=wrap;rounded=0;fontSize=15;" vertex="1" parent="1">
          <mxGeometry x="555" y="379" width="100" height="20" as="geometry" />
        </mxCell>
        <mxCell id="Bq_kC5_2EOcl6bQPgjw--49" value="&lt;font style=&quot;vertical-align: inherit ; font-size: 15px&quot;&gt;&lt;font style=&quot;vertical-align: inherit ; font-size: 15px&quot;&gt;&lt;font style=&quot;vertical-align: inherit&quot;&gt;&lt;font style=&quot;vertical-align: inherit&quot;&gt;&lt;font style=&quot;vertical-align: inherit&quot;&gt;&lt;font style=&quot;vertical-align: inherit&quot;&gt;学员端&lt;/font&gt;&lt;/font&gt;&lt;/font&gt;&lt;/font&gt;&lt;/font&gt;&lt;/font&gt;" style="text;html=1;strokeColor=none;fillColor=none;align=center;verticalAlign=middle;whiteSpace=wrap;rounded=0;fontSize=15;" vertex="1" parent="1">
          <mxGeometry x="180" y="403.5" width="20" height="20" as="geometry" />
        </mxCell>
        <mxCell id="Bq_kC5_2EOcl6bQPgjw--51" value="" style="rounded=0;whiteSpace=wrap;html=1;" vertex="1" parent="1">
          <mxGeometry x="990" y="49" width="220" height="60" as="geometry" />
        </mxCell>
        <mxCell id="Bq_kC5_2EOcl6bQPgjw--52" value="" style="shape=delay;whiteSpace=wrap;html=1;" vertex="1" parent="1">
          <mxGeometry x="850" y="199" width="360" height="40" as="geometry" />
        </mxCell>
        <mxCell id="Bq_kC5_2EOcl6bQPgjw--53" value="" style="shape=mxgraph.cisco.computers_and_peripherals.ibm_mainframe;html=1;pointerEvents=1;dashed=0;fillColor=#036897;strokeColor=#ffffff;strokeWidth=2;verticalLabelPosition=bottom;verticalAlign=top;align=center;outlineConnect=0;" vertex="1" parent="1">
          <mxGeometry x="1000" y="54" width="50" height="50" as="geometry" />
        </mxCell>
        <mxCell id="Bq_kC5_2EOcl6bQPgjw--54" value="&lt;font style=&quot;vertical-align: inherit; font-size: 15px;&quot;&gt;&lt;font style=&quot;vertical-align: inherit; font-size: 15px;&quot;&gt;导演台&lt;/font&gt;&lt;/font&gt;" style="text;html=1;strokeColor=none;fillColor=none;align=center;verticalAlign=middle;whiteSpace=wrap;rounded=0;fontSize=15;" vertex="1" parent="1">
          <mxGeometry x="1030" y="69" width="100" height="20" as="geometry" />
        </mxCell>
        <mxCell id="Bq_kC5_2EOcl6bQPgjw--55" value="" style="shape=mxgraph.cisco.misc.pad_2;html=1;pointerEvents=1;dashed=0;fillColor=#036897;strokeColor=#ffffff;strokeWidth=2;verticalLabelPosition=bottom;verticalAlign=top;align=center;outlineConnect=0;fontSize=15;" vertex="1" parent="1">
          <mxGeometry x="1114" y="55" width="85" height="48" as="geometry" />
        </mxCell>
        <mxCell id="Bq_kC5_2EOcl6bQPgjw--56" value="" style="shape=mxgraph.cisco.misc.mesh_ap;html=1;pointerEvents=1;dashed=0;fillColor=#036897;strokeColor=#ffffff;strokeWidth=2;verticalLabelPosition=bottom;verticalAlign=top;align=center;outlineConnect=0;fontSize=15;" vertex="1" parent="1">
          <mxGeometry x="890" y="204" width="70" height="30" as="geometry" />
        </mxCell>
        <mxCell id="Bq_kC5_2EOcl6bQPgjw--57" value="&lt;font style=&quot;vertical-align: inherit ; font-size: 15px&quot;&gt;&lt;font style=&quot;vertical-align: inherit ; font-size: 15px&quot;&gt;&lt;font style=&quot;vertical-align: inherit&quot;&gt;&lt;font style=&quot;vertical-align: inherit&quot;&gt;以太网&lt;/font&gt;&lt;/font&gt;&lt;/font&gt;&lt;/font&gt;" style="text;html=1;strokeColor=none;fillColor=none;align=center;verticalAlign=middle;whiteSpace=wrap;rounded=0;fontSize=15;" vertex="1" parent="1">
          <mxGeometry x="980" y="209" width="100" height="20" as="geometry" />
        </mxCell>
        <mxCell id="Bq_kC5_2EOcl6bQPgjw--58" value="" style="rounded=0;whiteSpace=wrap;html=1;" vertex="1" parent="1">
          <mxGeometry x="800" y="49" width="120" height="60" as="geometry" />
        </mxCell>
        <mxCell id="Bq_kC5_2EOcl6bQPgjw--59" value="" style="shape=mxgraph.cisco.storage.relational_database;html=1;pointerEvents=1;dashed=0;fillColor=#036897;strokeColor=#ffffff;strokeWidth=2;verticalLabelPosition=bottom;verticalAlign=top;align=center;outlineConnect=0;fontSize=15;" vertex="1" parent="1">
          <mxGeometry x="810" y="59" width="50" height="40" as="geometry" />
        </mxCell>
        <mxCell id="Bq_kC5_2EOcl6bQPgjw--60" value="&lt;font style=&quot;vertical-align: inherit ; font-size: 15px&quot;&gt;&lt;font style=&quot;vertical-align: inherit ; font-size: 15px&quot;&gt;&lt;font style=&quot;vertical-align: inherit&quot;&gt;&lt;font style=&quot;vertical-align: inherit&quot;&gt;数据库&lt;/font&gt;&lt;/font&gt;&lt;/font&gt;&lt;/font&gt;" style="text;html=1;strokeColor=none;fillColor=none;align=center;verticalAlign=middle;whiteSpace=wrap;rounded=0;fontSize=15;" vertex="1" parent="1">
          <mxGeometry x="840" y="69" width="100" height="20" as="geometry" />
        </mxCell>
        <mxCell id="Bq_kC5_2EOcl6bQPgjw--61" value="" style="shape=flexArrow;endArrow=classic;startArrow=classic;html=1;fontSize=15;entryX=0;entryY=0.5;entryDx=0;entryDy=0;exitX=1;exitY=0.5;exitDx=0;exitDy=0;" edge="1" parent="1" source="Bq_kC5_2EOcl6bQPgjw--58" target="Bq_kC5_2EOcl6bQPgjw--51">
          <mxGeometry width="50" height="50" relative="1" as="geometry">
            <mxPoint x="920" y="89" as="sourcePoint" />
            <mxPoint x="1070" y="119" as="targetPoint" />
          </mxGeometry>
        </mxCell>
        <mxCell id="Bq_kC5_2EOcl6bQPgjw--62" value="&lt;font style=&quot;vertical-align: inherit ; font-size: 15px&quot;&gt;&lt;font style=&quot;vertical-align: inherit ; font-size: 15px&quot;&gt;&lt;font style=&quot;vertical-align: inherit&quot;&gt;&lt;font style=&quot;vertical-align: inherit&quot;&gt;&lt;font style=&quot;vertical-align: inherit&quot;&gt;&lt;font style=&quot;vertical-align: inherit&quot;&gt;数据交互&lt;/font&gt;&lt;/font&gt;&lt;/font&gt;&lt;/font&gt;&lt;/font&gt;&lt;/font&gt;" style="text;html=1;strokeColor=none;fillColor=none;align=center;verticalAlign=middle;whiteSpace=wrap;rounded=0;fontSize=15;" vertex="1" parent="1">
          <mxGeometry x="910" y="49" width="100" height="20" as="geometry" />
        </mxCell>
        <mxCell id="Bq_kC5_2EOcl6bQPgjw--63" value="" style="shape=flexArrow;endArrow=classic;html=1;fontSize=15;entryX=0.5;entryY=0;entryDx=0;entryDy=0;exitX=0.178;exitY=1.027;exitDx=0;exitDy=0;exitPerimeter=0;" edge="1" parent="1" source="Bq_kC5_2EOcl6bQPgjw--51" target="Bq_kC5_2EOcl6bQPgjw--52">
          <mxGeometry width="50" height="50" relative="1" as="geometry">
            <mxPoint x="800" y="149" as="sourcePoint" />
            <mxPoint x="1040" y="159" as="targetPoint" />
          </mxGeometry>
        </mxCell>
        <mxCell id="Bq_kC5_2EOcl6bQPgjw--64" value="&lt;font style=&quot;vertical-align: inherit ; font-size: 15px&quot;&gt;&lt;font style=&quot;vertical-align: inherit ; font-size: 15px&quot;&gt;&lt;font style=&quot;vertical-align: inherit&quot;&gt;&lt;font style=&quot;vertical-align: inherit&quot;&gt;题目发布&lt;/font&gt;&lt;/font&gt;&lt;/font&gt;&lt;/font&gt;" style="text;html=1;strokeColor=none;fillColor=none;align=center;verticalAlign=middle;whiteSpace=wrap;rounded=0;fontSize=15;" vertex="1" parent="1">
          <mxGeometry x="990" y="149" width="30" height="20" as="geometry" />
        </mxCell>
        <mxCell id="Bq_kC5_2EOcl6bQPgjw--65" value="" style="shape=flexArrow;endArrow=classic;html=1;fontSize=15;entryX=0.5;entryY=0;entryDx=0;entryDy=0;exitX=0.178;exitY=1.027;exitDx=0;exitDy=0;exitPerimeter=0;" edge="1" parent="1">
          <mxGeometry width="50" height="50" relative="1" as="geometry">
            <mxPoint x="1079" y="110.62" as="sourcePoint" />
            <mxPoint x="1079.8400000000001" y="199" as="targetPoint" />
          </mxGeometry>
        </mxCell>
        <mxCell id="Bq_kC5_2EOcl6bQPgjw--66" value="&lt;font style=&quot;vertical-align: inherit; font-size: 12px;&quot;&gt;&lt;font style=&quot;vertical-align: inherit; font-size: 12px;&quot;&gt;&lt;font style=&quot;vertical-align: inherit; font-size: 12px;&quot;&gt;&lt;font style=&quot;vertical-align: inherit; font-size: 12px;&quot;&gt;&lt;font style=&quot;vertical-align: inherit; font-size: 12px;&quot;&gt;&lt;font style=&quot;vertical-align: inherit; font-size: 12px;&quot;&gt;&lt;font style=&quot;vertical-align: inherit; font-size: 12px;&quot;&gt;&lt;font style=&quot;vertical-align: inherit ; font-size: 12px&quot;&gt;播报对方信息&lt;/font&gt;&lt;/font&gt;&lt;/font&gt;&lt;/font&gt;&lt;/font&gt;&lt;/font&gt;&lt;/font&gt;&lt;/font&gt;" style="text;html=1;strokeColor=none;fillColor=none;align=center;verticalAlign=middle;whiteSpace=wrap;rounded=0;fontSize=12;" vertex="1" parent="1">
          <mxGeometry x="1050" y="149" width="20" height="11" as="geometry" />
        </mxCell>
        <mxCell id="Bq_kC5_2EOcl6bQPgjw--67" value="" style="shape=flexArrow;endArrow=classic;html=1;fontSize=15;entryX=0.75;entryY=1;entryDx=0;entryDy=0;exitX=0.849;exitY=-0.05;exitDx=0;exitDy=0;exitPerimeter=0;" edge="1" parent="1" source="Bq_kC5_2EOcl6bQPgjw--52" target="Bq_kC5_2EOcl6bQPgjw--51">
          <mxGeometry width="50" height="50" relative="1" as="geometry">
            <mxPoint x="1089" y="120.62" as="sourcePoint" />
            <mxPoint x="1089.8400000000001" y="209" as="targetPoint" />
          </mxGeometry>
        </mxCell>
        <mxCell id="Bq_kC5_2EOcl6bQPgjw--68" value="&lt;font style=&quot;vertical-align: inherit ; font-size: 15px&quot;&gt;&lt;font style=&quot;vertical-align: inherit ; font-size: 15px&quot;&gt;&lt;font style=&quot;vertical-align: inherit&quot;&gt;&lt;font style=&quot;vertical-align: inherit&quot;&gt;&lt;font style=&quot;vertical-align: inherit&quot;&gt;&lt;font style=&quot;vertical-align: inherit&quot;&gt;&lt;font style=&quot;vertical-align: inherit&quot;&gt;&lt;font style=&quot;vertical-align: inherit&quot;&gt;答案信息&lt;/font&gt;&lt;/font&gt;&lt;/font&gt;&lt;/font&gt;&lt;/font&gt;&lt;/font&gt;&lt;/font&gt;&lt;/font&gt;" style="text;html=1;strokeColor=none;fillColor=none;align=center;verticalAlign=middle;whiteSpace=wrap;rounded=0;fontSize=15;" vertex="1" parent="1">
          <mxGeometry x="1170" y="149" width="20" height="20" as="geometry" />
        </mxCell>
        <mxCell id="Bq_kC5_2EOcl6bQPgjw--69" value="&lt;font style=&quot;vertical-align: inherit ; font-size: 15px&quot;&gt;&lt;font style=&quot;vertical-align: inherit ; font-size: 15px&quot;&gt;&lt;font style=&quot;vertical-align: inherit&quot;&gt;&lt;font style=&quot;vertical-align: inherit&quot;&gt;&lt;font style=&quot;vertical-align: inherit&quot;&gt;&lt;font style=&quot;vertical-align: inherit&quot;&gt;题目信息&lt;/font&gt;&lt;/font&gt;&lt;/font&gt;&lt;/font&gt;&lt;/font&gt;&lt;/font&gt;" style="text;html=1;strokeColor=none;fillColor=none;align=center;verticalAlign=middle;whiteSpace=wrap;rounded=0;fontSize=15;" vertex="1" parent="1">
          <mxGeometry x="830" y="269" width="30" height="20" as="geometry" />
        </mxCell>
        <mxCell id="Bq_kC5_2EOcl6bQPgjw--70" value="" style="shape=flexArrow;endArrow=classic;html=1;fontSize=15;" edge="1" parent="1">
          <mxGeometry width="50" height="50" relative="1" as="geometry">
            <mxPoint x="921" y="241" as="sourcePoint" />
            <mxPoint x="921" y="339" as="targetPoint" />
          </mxGeometry>
        </mxCell>
        <mxCell id="Bq_kC5_2EOcl6bQPgjw--71" value="&lt;font style=&quot;vertical-align: inherit ; font-size: 15px&quot;&gt;&lt;font style=&quot;vertical-align: inherit ; font-size: 15px&quot;&gt;&lt;font style=&quot;vertical-align: inherit&quot;&gt;&lt;font style=&quot;vertical-align: inherit&quot;&gt;&lt;font style=&quot;vertical-align: inherit&quot;&gt;&lt;font style=&quot;vertical-align: inherit&quot;&gt;&lt;font style=&quot;vertical-align: inherit&quot;&gt;&lt;font style=&quot;vertical-align: inherit&quot;&gt;消息接收&lt;/font&gt;&lt;/font&gt;&lt;/font&gt;&lt;/font&gt;&lt;/font&gt;&lt;/font&gt;&lt;/font&gt;&lt;/font&gt;" style="text;html=1;strokeColor=none;fillColor=none;align=center;verticalAlign=middle;whiteSpace=wrap;rounded=0;fontSize=15;" vertex="1" parent="1">
          <mxGeometry x="880" y="269" width="30" height="20" as="geometry" />
        </mxCell>
        <mxCell id="Bq_kC5_2EOcl6bQPgjw--72" value="" style="shape=flexArrow;endArrow=classic;html=1;fontSize=15;exitX=0.319;exitY=-0.014;exitDx=0;exitDy=0;exitPerimeter=0;entryX=0.296;entryY=1.09;entryDx=0;entryDy=0;entryPerimeter=0;" edge="1" parent="1" source="Bq_kC5_2EOcl6bQPgjw--74" target="Bq_kC5_2EOcl6bQPgjw--52">
          <mxGeometry width="50" height="50" relative="1" as="geometry">
            <mxPoint x="956.44" y="330.4" as="sourcePoint" />
            <mxPoint x="981" y="319" as="targetPoint" />
          </mxGeometry>
        </mxCell>
        <mxCell id="Bq_kC5_2EOcl6bQPgjw--73" value="&lt;font style=&quot;vertical-align: inherit ; font-size: 15px&quot;&gt;&lt;font style=&quot;vertical-align: inherit ; font-size: 15px&quot;&gt;&lt;font style=&quot;vertical-align: inherit&quot;&gt;&lt;font style=&quot;vertical-align: inherit&quot;&gt;&lt;font style=&quot;vertical-align: inherit&quot;&gt;&lt;font style=&quot;vertical-align: inherit&quot;&gt;&lt;font style=&quot;vertical-align: inherit&quot;&gt;&lt;font style=&quot;vertical-align: inherit&quot;&gt;&lt;font style=&quot;vertical-align: inherit&quot;&gt;&lt;font style=&quot;vertical-align: inherit&quot;&gt;答案信息&lt;/font&gt;&lt;/font&gt;&lt;/font&gt;&lt;/font&gt;&lt;/font&gt;&lt;/font&gt;&lt;/font&gt;&lt;/font&gt;&lt;/font&gt;&lt;/font&gt;" style="text;html=1;strokeColor=none;fillColor=none;align=center;verticalAlign=middle;whiteSpace=wrap;rounded=0;fontSize=15;" vertex="1" parent="1">
          <mxGeometry x="970" y="269" width="30" height="20" as="geometry" />
        </mxCell>
        <mxCell id="Bq_kC5_2EOcl6bQPgjw--74" value="" style="rounded=0;whiteSpace=wrap;html=1;" vertex="1" parent="1">
          <mxGeometry x="800" y="339" width="490" height="140" as="geometry" />
        </mxCell>
        <mxCell id="Bq_kC5_2EOcl6bQPgjw--75" value="" style="rounded=0;whiteSpace=wrap;html=1;" vertex="1" parent="1">
          <mxGeometry x="845" y="359" width="120" height="60" as="geometry" />
        </mxCell>
        <mxCell id="Bq_kC5_2EOcl6bQPgjw--76" style="edgeStyle=orthogonalEdgeStyle;rounded=0;orthogonalLoop=1;jettySize=auto;html=1;fontSize=15;" edge="1" parent="1" source="Bq_kC5_2EOcl6bQPgjw--77">
          <mxGeometry relative="1" as="geometry">
            <mxPoint x="965" y="389" as="targetPoint" />
          </mxGeometry>
        </mxCell>
        <mxCell id="Bq_kC5_2EOcl6bQPgjw--77" value="" style="rounded=0;whiteSpace=wrap;html=1;" vertex="1" parent="1">
          <mxGeometry x="1095" y="359" width="190" height="90" as="geometry" />
        </mxCell>
        <mxCell id="Bq_kC5_2EOcl6bQPgjw--78" value="&lt;font style=&quot;vertical-align: inherit ; font-size: 15px&quot;&gt;&lt;font style=&quot;vertical-align: inherit ; font-size: 15px&quot;&gt;&lt;font style=&quot;vertical-align: inherit&quot;&gt;&lt;font style=&quot;vertical-align: inherit&quot;&gt;&lt;font style=&quot;vertical-align: inherit&quot;&gt;&lt;font style=&quot;vertical-align: inherit&quot;&gt;客户端&lt;/font&gt;&lt;/font&gt;&lt;/font&gt;&lt;/font&gt;&lt;/font&gt;&lt;/font&gt;" style="text;html=1;strokeColor=none;fillColor=none;align=center;verticalAlign=middle;whiteSpace=wrap;rounded=0;fontSize=15;" vertex="1" parent="1">
          <mxGeometry x="885" y="379" width="100" height="20" as="geometry" />
        </mxCell>
        <mxCell id="Bq_kC5_2EOcl6bQPgjw--79" value="" style="shape=mxgraph.cisco.computers_and_peripherals.upc;html=1;pointerEvents=1;dashed=0;fillColor=#036897;strokeColor=#ffffff;strokeWidth=2;verticalLabelPosition=bottom;verticalAlign=top;align=center;outlineConnect=0;fontSize=15;" vertex="1" parent="1">
          <mxGeometry x="852" y="364" width="60" height="50" as="geometry" />
        </mxCell>
        <mxCell id="Bq_kC5_2EOcl6bQPgjw--80" value="" style="shape=mxgraph.cisco.misc.handheld;html=1;pointerEvents=1;dashed=0;fillColor=#036897;strokeColor=#ffffff;strokeWidth=2;verticalLabelPosition=bottom;verticalAlign=top;align=center;outlineConnect=0;fontSize=15;" vertex="1" parent="1">
          <mxGeometry x="1108" y="385.5" width="67" height="37" as="geometry" />
        </mxCell>
        <mxCell id="Bq_kC5_2EOcl6bQPgjw--81" value="&lt;font style=&quot;vertical-align: inherit ; font-size: 15px&quot;&gt;&lt;font style=&quot;vertical-align: inherit ; font-size: 15px&quot;&gt;&lt;font style=&quot;vertical-align: inherit&quot;&gt;&lt;font style=&quot;vertical-align: inherit&quot;&gt;&lt;font style=&quot;vertical-align: inherit&quot;&gt;&lt;font style=&quot;vertical-align: inherit&quot;&gt;&lt;font style=&quot;vertical-align: inherit&quot;&gt;&lt;font style=&quot;vertical-align: inherit&quot;&gt;人机交互平台&lt;/font&gt;&lt;/font&gt;&lt;/font&gt;&lt;/font&gt;&lt;/font&gt;&lt;/font&gt;&lt;/font&gt;&lt;/font&gt;" style="text;html=1;strokeColor=none;fillColor=none;align=center;verticalAlign=middle;whiteSpace=wrap;rounded=0;fontSize=15;" vertex="1" parent="1">
          <mxGeometry x="1185" y="409" width="100" height="20" as="geometry" />
        </mxCell>
        <mxCell id="Bq_kC5_2EOcl6bQPgjw--82" value="&lt;font style=&quot;vertical-align: inherit ; font-size: 15px&quot;&gt;&lt;font style=&quot;vertical-align: inherit ; font-size: 15px&quot;&gt;&lt;font style=&quot;vertical-align: inherit&quot;&gt;&lt;font style=&quot;vertical-align: inherit&quot;&gt;&lt;font style=&quot;vertical-align: inherit&quot;&gt;&lt;font style=&quot;vertical-align: inherit&quot;&gt;学员端&lt;/font&gt;&lt;/font&gt;&lt;/font&gt;&lt;/font&gt;&lt;/font&gt;&lt;/font&gt;" style="text;html=1;strokeColor=none;fillColor=none;align=center;verticalAlign=middle;whiteSpace=wrap;rounded=0;fontSize=15;" vertex="1" parent="1">
          <mxGeometry x="810" y="402.5" width="20" height="20" as="geometry" />
        </mxCell>
        <mxCell id="Bq_kC5_2EOcl6bQPgjw--83" value="" style="shape=flexArrow;endArrow=classic;html=1;fontSize=15;" edge="1" parent="1">
          <mxGeometry width="50" height="50" relative="1" as="geometry">
            <mxPoint x="870" y="241" as="sourcePoint" />
            <mxPoint x="870" y="339" as="targetPoint" />
          </mxGeometry>
        </mxCell>
        <mxCell id="Bq_kC5_2EOcl6bQPgjw--86" value="" style="shape=flexArrow;endArrow=classic;html=1;fontSize=15;exitX=1;exitY=0.5;exitDx=0;exitDy=0;" edge="1" parent="1" source="Bq_kC5_2EOcl6bQPgjw--1">
          <mxGeometry width="50" height="50" relative="1" as="geometry">
            <mxPoint x="535.6399999999999" y="208" as="sourcePoint" />
            <mxPoint x="630" y="80" as="targetPoint" />
          </mxGeometry>
        </mxCell>
        <mxCell id="Bq_kC5_2EOcl6bQPgjw--87" value="" style="rounded=0;whiteSpace=wrap;html=1;" vertex="1" parent="1">
          <mxGeometry x="630" y="49" width="60" height="60" as="geometry" />
        </mxCell>
        <mxCell id="Bq_kC5_2EOcl6bQPgjw--88" value="&lt;font style=&quot;vertical-align: inherit ; font-size: 15px&quot;&gt;&lt;font style=&quot;vertical-align: inherit ; font-size: 15px&quot;&gt;评估&lt;/font&gt;&lt;/font&gt;" style="text;html=1;strokeColor=none;fillColor=none;align=center;verticalAlign=middle;whiteSpace=wrap;rounded=0;fontSize=15;" vertex="1" parent="1">
          <mxGeometry x="610" y="70" width="100" height="20" as="geometry" />
        </mxCell>
        <mxCell id="Bq_kC5_2EOcl6bQPgjw--89" value="" style="rounded=0;whiteSpace=wrap;html=1;" vertex="1" parent="1">
          <mxGeometry x="215" y="459" width="120" height="60" as="geometry" />
        </mxCell>
        <mxCell id="Bq_kC5_2EOcl6bQPgjw--90" value="" style="shape=mxgraph.cisco.computers_and_peripherals.upc;html=1;pointerEvents=1;dashed=0;fillColor=#036897;strokeColor=#ffffff;strokeWidth=2;verticalLabelPosition=bottom;verticalAlign=top;align=center;outlineConnect=0;fontSize=15;" vertex="1" parent="1">
          <mxGeometry x="222" y="464" width="60" height="50" as="geometry" />
        </mxCell>
        <mxCell id="Bq_kC5_2EOcl6bQPgjw--92" value="" style="shape=mxgraph.cisco.misc.pad_2;html=1;pointerEvents=1;dashed=0;fillColor=#036897;strokeColor=#ffffff;strokeWidth=2;verticalLabelPosition=bottom;verticalAlign=top;align=center;outlineConnect=0;fontSize=12;" vertex="1" parent="1">
          <mxGeometry x="227" y="364" width="50" height="50" as="geometry" />
        </mxCell>
        <mxCell id="Bq_kC5_2EOcl6bQPgjw--93" value="&lt;font style=&quot;vertical-align: inherit ; font-size: 15px&quot;&gt;&lt;font style=&quot;vertical-align: inherit ; font-size: 15px&quot;&gt;&lt;font style=&quot;vertical-align: inherit&quot;&gt;&lt;font style=&quot;vertical-align: inherit&quot;&gt;&lt;font style=&quot;vertical-align: inherit&quot;&gt;&lt;font style=&quot;vertical-align: inherit&quot;&gt;客户端&lt;/font&gt;&lt;/font&gt;&lt;/font&gt;&lt;/font&gt;&lt;/font&gt;&lt;/font&gt;" style="text;html=1;strokeColor=none;fillColor=none;align=center;verticalAlign=middle;whiteSpace=wrap;rounded=0;fontSize=15;" vertex="1" parent="1">
          <mxGeometry x="255" y="479" width="100" height="20" as="geometry" />
        </mxCell>
        <mxCell id="Bq_kC5_2EOcl6bQPgjw--98" style="edgeStyle=orthogonalEdgeStyle;rounded=0;orthogonalLoop=1;jettySize=auto;html=1;fontSize=12;" edge="1" parent="1" source="Bq_kC5_2EOcl6bQPgjw--94" target="Bq_kC5_2EOcl6bQPgjw--89">
          <mxGeometry relative="1" as="geometry" />
        </mxCell>
        <mxCell id="Bq_kC5_2EOcl6bQPgjw--94" value="" style="rounded=0;whiteSpace=wrap;html=1;" vertex="1" parent="1">
          <mxGeometry x="465" y="444" width="190" height="90" as="geometry" />
        </mxCell>
        <mxCell id="Bq_kC5_2EOcl6bQPgjw--95" value="" style="shape=mxgraph.cisco.misc.handheld;html=1;pointerEvents=1;dashed=0;fillColor=#036897;strokeColor=#ffffff;strokeWidth=2;verticalLabelPosition=bottom;verticalAlign=top;align=center;outlineConnect=0;fontSize=15;" vertex="1" parent="1">
          <mxGeometry x="473" y="469.5" width="67" height="37" as="geometry" />
        </mxCell>
        <mxCell id="Bq_kC5_2EOcl6bQPgjw--96" value="&lt;font style=&quot;vertical-align: inherit ; font-size: 15px&quot;&gt;&lt;font style=&quot;vertical-align: inherit ; font-size: 15px&quot;&gt;&lt;font style=&quot;vertical-align: inherit&quot;&gt;&lt;font style=&quot;vertical-align: inherit&quot;&gt;&lt;font style=&quot;vertical-align: inherit&quot;&gt;&lt;font style=&quot;vertical-align: inherit&quot;&gt;&lt;font style=&quot;vertical-align: inherit&quot;&gt;&lt;font style=&quot;vertical-align: inherit&quot;&gt;数位板&lt;/font&gt;&lt;/font&gt;&lt;/font&gt;&lt;/font&gt;&lt;/font&gt;&lt;/font&gt;&lt;/font&gt;&lt;/font&gt;" style="text;html=1;strokeColor=none;fillColor=none;align=center;verticalAlign=middle;whiteSpace=wrap;rounded=0;fontSize=15;" vertex="1" parent="1">
          <mxGeometry x="555" y="478" width="100" height="20" as="geometry" />
        </mxCell>
        <mxCell id="Bq_kC5_2EOcl6bQPgjw--47" value="" style="shape=mxgraph.cisco.misc.handheld;html=1;pointerEvents=1;dashed=0;fillColor=#036897;strokeColor=#ffffff;strokeWidth=2;verticalLabelPosition=bottom;verticalAlign=top;align=center;outlineConnect=0;fontSize=15;direction=west;" vertex="1" parent="1">
          <mxGeometry x="473" y="370.5" width="67" height="37" as="geometry" />
        </mxCell>
        <mxCell id="Bq_kC5_2EOcl6bQPgjw--100" value="&lt;font style=&quot;vertical-align: inherit ; font-size: 15px&quot;&gt;&lt;font style=&quot;vertical-align: inherit ; font-size: 15px&quot;&gt;&lt;font style=&quot;vertical-align: inherit&quot;&gt;&lt;font style=&quot;vertical-align: inherit&quot;&gt;题目发布&lt;/font&gt;&lt;/font&gt;&lt;/font&gt;&lt;/font&gt;" style="text;html=1;strokeColor=none;fillColor=none;align=center;verticalAlign=middle;whiteSpace=wrap;rounded=0;fontSize=15;" vertex="1" parent="1">
          <mxGeometry x="360" y="199" width="30" height="20" as="geometry" />
        </mxCell>
        <mxCell id="Bq_kC5_2EOcl6bQPgjw--101" value="&lt;font style=&quot;vertical-align: inherit ; font-size: 15px&quot;&gt;&lt;font style=&quot;vertical-align: inherit ; font-size: 15px&quot;&gt;&lt;font style=&quot;vertical-align: inherit&quot;&gt;&lt;font style=&quot;vertical-align: inherit&quot;&gt;消息播报&lt;/font&gt;&lt;/font&gt;&lt;/font&gt;&lt;/font&gt;" style="text;html=1;strokeColor=none;fillColor=none;align=center;verticalAlign=middle;whiteSpace=wrap;rounded=0;fontSize=15;" vertex="1" parent="1">
          <mxGeometry x="414" y="199" width="30" height="20" as="geometry" />
        </mxCell>
        <mxCell id="Bq_kC5_2EOcl6bQPgjw--102" value="&lt;font style=&quot;vertical-align: inherit ; font-size: 15px&quot;&gt;&lt;font style=&quot;vertical-align: inherit ; font-size: 15px&quot;&gt;&lt;font style=&quot;vertical-align: inherit&quot;&gt;&lt;font style=&quot;vertical-align: inherit&quot;&gt;答案信息&lt;/font&gt;&lt;/font&gt;&lt;/font&gt;&lt;/font&gt;" style="text;html=1;strokeColor=none;fillColor=none;align=center;verticalAlign=middle;whiteSpace=wrap;rounded=0;fontSize=15;" vertex="1" parent="1">
          <mxGeometry x="525" y="199" width="30" height="20" as="geometry" />
        </mxCell>
      </root>
    </mxGraphModel>
  </diagram>
</mxfile>
